<?xml version="1.0" encoding="UTF-8"?>
<!DOCTYPE svg PUBLIC "-//W3C//DTD SVG 1.1//EN" "http://www.w3.org/Graphics/SVG/1.1/DTD/svg11.dtd">
<!-- Creator: CorelDRAW X6 -->
<svg xmlns="http://www.w3.org/2000/svg" xml:space="preserve" width="11in" height="3.5in" version="1.1" style="shape-rendering:geometricPrecision; text-rendering:geometricPrecision; image-rendering:optimizeQuality; fill-rule:evenodd; clip-rule:evenodd"
viewBox="0 0 11000 3500"
 xmlns:xlink="http://www.w3.org/1999/xlink">
 <defs>
  <style type="text/css">
   <![CDATA[
    .fil0 {fill:black}
    .fil1 {fill:#0B69AB}
    .fil2 {fill:black;fill-rule:nonzero}
   ]]>
  </style>
 </defs>
 <g id="Layer_x0020_1">
  <metadata id="CorelCorpID_0Corel-Layer"/>
  <g id="_589819120">
   <g>
    <path class="fil0" d="M4401 2090l0 -418c320,0 782,0 1171,0 5,80 35,863 -749,1171 -125,49 -561,220 -1105,-142 -43,-29 -474,-305 -485,-953 -11,-618 526,-1168 1168,-1168 437,0 801,218 1026,595 -199,101 -207,111 -429,222 -128,-216 -345,-332 -598,-332 -380,0 -684,304 -684,684 0,383 305,694 685,694 253,0 486,-138 604,-352m-606 0l0 0 0 0z"/>
   </g>
   <g>
    <polygon class="fil0" points="6356,1987 6356,2483 7670,2483 7670,2914 5860,2914 5860,579 7559,579 7559,1010 6356,1010 6356,1534 7419,1534 7419,1987 "/>
   </g>
   <g>
    <path class="fil1" d="M909 2565c176,90 374,156 637,153 1017,-11 1256,-1233 674,-1594 -120,-74 -264,-95 -405,-50 -178,58 -200,305 -7,377 -107,-6 -167,-79 -191,-157 -31,-112 -2,-244 78,-333 174,-194 508,-208 770,-67 526,283 588,1081 256,1524 -322,475 -1112,775 -1812,147z"/>
    <path class="fil1" d="M939 916c-170,316 -167,632 90,896 257,263 657,253 898,83 184,-129 254,-370 143,-570 -159,-232 -424,-98 -290,78 -31,-13 -52,-38 -62,-72 -42,-137 145,-286 364,-133 485,338 195,1208 -461,1312 -971,122 -1380,-852 -682,-1594z"/>
    <path class="fil1" d="M2321 725c-630,-163 -885,221 -867,530 7,214 207,373 368,299 65,-31 115,-92 118,-166 4,-109 -121,-141 -165,-62 42,-173 320,-38 245,214 -144,487 -1149,321 -1037,-438 91,-602 971,-631 1338,-377z"/>
   </g>
   <path class="fil0" d="M10143 857l0 -176 75 0c19,0 32,2 41,5 9,3 16,9 20,17 5,8 8,17 8,28 0,13 -4,24 -11,33 -8,9 -19,14 -35,16 8,4 14,9 19,15 5,5 12,15 20,29l22 34 -42 0 -25 -38c-9,-13 -16,-22 -19,-26 -3,-4 -7,-6 -11,-7 -4,-1 -10,-2 -18,-2l-7 0 0 74 -36 0 0 0zm36 -101l26 0c17,0 28,-1 32,-2 4,-2 8,-4 10,-7 2,-4 4,-8 4,-13 0,-6 -2,-11 -5,-14 -3,-4 -8,-6 -13,-7 -3,0 -11,-1 -26,-1l-28 0 0 45 0 0z"/>
   <path class="fil2" d="M10369 771c0,-43 -17,-81 -45,-109 -28,-28 -67,-45 -109,-45 -43,0 -81,17 -109,45 -28,28 -45,67 -45,109 0,43 17,81 45,109 28,28 67,45 109,45 43,0 81,-17 109,-45 28,-28 45,-67 45,-109zm-16 -138c35,35 57,84 57,138 0,54 -22,103 -57,138 -35,35 -84,57 -138,57 -54,0 -103,-22 -138,-57 -35,-35 -57,-84 -57,-138 0,-54 22,-103 57,-138 35,-35 84,-57 138,-57 54,0 103,22 138,57z"/>
   <g>
    <path class="fil0" d="M7977 576l1055 0c586,0 809,370 809,750 0,380 -223,750 -809,750l-541 0 0 839 -514 0 0 -2339zm514 1101l400 0c236,0 452,-52 452,-351 0,-298 -216,-351 -452,-351l-400 0 0 701z"/>
   </g>
  </g>
 </g>
</svg>
